<svg width="220" height="220" viewBox="0 0 220 220" fill="none" xmlns="http://www.w3.org/2000/svg">
<path d="M214.289 170.773C213.224 169.8 211.651 169.618 210.333 170.206L182.616 182.568C181.025 183.278 179.301 183.645 177.559 183.645H154.576C155.406 182.545 155.868 181.152 155.758 179.645C155.532 176.517 152.806 174.153 149.67 174.153H119.491C114.25 174.153 110.001 178.402 110 183.642C109.999 178.402 105.75 174.153 100.509 174.153H70.3302C67.1934 174.153 64.4681 176.516 64.2415 179.645C64.1323 181.152 64.5943 182.545 65.4242 183.645H42.4417C40.6993 183.645 38.9758 183.278 37.3843 182.568L9.66738 170.206C8.34958 169.618 6.77614 169.8 5.7109 170.773C4.06442 172.277 4.19774 174.913 5.99338 176.242L38.4707 200.284C39.8144 201.279 41.442 201.816 43.1135 201.816H72.4585C74.6409 201.816 76.4101 203.585 76.4101 205.767V217.8H110H143.59V205.767C143.59 203.585 145.359 201.816 147.541 201.816H176.886C178.558 201.816 180.185 201.279 181.529 200.284L214.006 176.242C215.803 174.913 215.935 172.277 214.289 170.773Z" fill="#FDDF7F"/>
<path d="M163.812 149.899H56.1885C45.122 149.899 36.1509 140.928 36.1509 129.861V22.2376C36.1509 11.1712 45.122 2.2 56.1885 2.2H163.812C174.878 2.2 183.849 11.1712 183.849 22.2376V129.861C183.85 140.928 174.878 149.899 163.812 149.899Z" fill="#6C5BD9"/>
<path d="M96.8815 49.0561C92.515 45.3169 87.0994 42.999 81.4107 42.4015C77.9496 47.1856 76.0488 52.976 76.0312 58.9187C80.7463 59.8237 85.3412 61.505 89.6092 63.9699C91.0735 58.5011 93.5736 53.4574 96.8815 49.0561Z" fill="#ECF4F7"/>
<path d="M143.969 58.9187C143.951 52.976 142.05 47.1856 138.589 42.4015C132.9 42.9995 127.485 45.3169 123.118 49.0561C126.427 53.4578 128.927 58.5015 130.391 63.9699C134.659 61.505 139.254 59.8233 143.969 58.9187Z" fill="#ECF4F7"/>
<path d="M163.587 59.6117C152.525 56.6597 140.535 58.1117 130.391 63.9695C127.361 52.6549 119.91 43.15 110 37.4155C100.091 43.15 92.6394 52.6549 89.6092 63.9695C79.4658 58.1113 67.4758 56.6597 56.4138 59.6117C52.5185 74.2087 56.284 90.4253 67.7354 101.877C79.1869 113.328 95.4031 117.094 110 113.198C124.598 117.094 140.814 113.328 152.265 101.877C163.717 90.4253 167.482 74.2087 163.587 59.6117Z" fill="#FDDF7F"/>
<path d="M86.2456 80.8029C86.1017 79.5964 86.9632 78.5017 88.1697 78.3578C89.3727 78.2148 90.4705 79.0755 90.6148 80.282C90.6531 80.6036 90.6953 80.9239 90.7406 81.2434C90.9131 82.4459 90.0776 83.5608 88.8746 83.7329C88.7694 83.7478 88.6638 83.7553 88.5604 83.7553C87.4833 83.7553 86.5422 82.9642 86.3855 81.8668C86.3345 81.5131 86.2878 81.1589 86.2456 80.8029ZM66.1794 103.433C54.6219 91.8746 50.0653 74.8664 54.288 59.0445C54.4912 58.2837 55.0857 57.6888 55.8464 57.486C61.7662 55.9064 67.9407 55.554 73.9502 56.3697C74.4338 50.9027 76.4068 45.5646 79.6284 41.1118C80.09 40.4734 80.8578 40.1302 81.6406 40.2134C87.0675 40.7836 92.1693 42.7618 96.5258 45.9668C99.9586 41.8308 104.129 38.2712 108.898 35.5115C109.58 35.1173 110.42 35.1173 111.102 35.5115C115.877 38.2747 120.039 41.84 123.463 45.9752C127.823 42.7658 132.928 40.784 138.36 40.2134C139.14 40.1302 139.91 40.4734 140.372 41.1118C143.593 45.5646 145.566 50.9032 146.05 56.3697C152.059 55.554 158.234 55.9064 164.154 57.486C164.915 57.6888 165.509 58.2837 165.712 59.0445C169.934 74.8669 165.377 91.8751 153.82 103.433C145.115 112.138 133.312 116.873 121.257 116.873C117.5 116.873 113.721 116.407 110 115.465C106.28 116.407 102.499 116.873 98.7429 116.873C86.6869 116.873 74.8861 112.139 66.1794 103.433ZM132.917 65.0971C133.678 68.4134 134.08 71.8348 134.08 75.3069C134.08 89.8229 127.131 103.47 115.648 112.089C128.425 113.831 141.487 109.543 150.709 100.321C160.857 90.1736 165.035 75.3764 161.773 61.4258C152.064 59.1589 141.703 60.4846 132.917 65.0971ZM126.106 49.4947C128.471 52.9769 130.356 56.7728 131.698 60.7741C134.885 59.1848 138.247 57.9788 141.701 57.1705C141.384 52.774 139.939 48.4576 137.536 44.755C133.382 45.3979 129.484 47.0171 126.106 49.4947ZM78.2988 57.171C81.747 57.9779 85.1034 59.1813 88.285 60.7662C89.6266 56.7582 91.5124 52.9619 93.8792 49.4846C90.5052 47.0131 86.6121 45.397 82.4629 44.7555C80.0601 48.4576 78.6147 52.7745 78.2988 57.171ZM69.2906 100.321C78.5135 109.543 91.5758 113.831 104.353 112.088C97.1004 106.657 91.5656 99.1936 88.5327 90.6101C88.1275 89.4643 88.7281 88.2077 89.8738 87.8029C91.0196 87.3981 92.2767 87.9987 92.681 89.144C95.8301 98.0553 101.955 105.641 110 110.633C122.171 103.076 129.681 89.6575 129.681 75.3064C129.681 60.9554 122.171 47.538 110 39.9802C99.0179 46.7971 91.7672 58.3867 90.5171 71.2329C90.3988 72.4425 89.3234 73.3286 88.1143 73.2094C86.9052 73.0915 86.0199 72.0161 86.1378 70.8066C86.3261 68.8714 86.6412 66.9627 87.0688 65.0892C78.2851 60.4824 67.931 59.1606 58.2273 61.4258C54.9647 75.376 59.1429 90.1732 69.2906 100.321ZM33.9507 129.861V22.238C33.9507 9.97568 43.9264 0 56.1883 0H163.812C176.074 0 186.049 9.97568 186.049 22.238V129.861C186.049 142.123 176.074 152.099 163.812 152.099H56.1883C43.9264 152.099 33.9507 142.123 33.9507 129.861ZM38.3507 129.861C38.3507 139.697 46.353 147.699 56.1883 147.699H163.812C173.648 147.699 181.649 139.697 181.649 129.861V22.238C181.649 12.4023 173.647 4.4 163.812 4.4H56.1883C46.3526 4.4 38.3507 12.4023 38.3507 22.238V129.861ZM13.4973 41.2738H16.1263V43.9023C16.1263 45.1172 17.111 46.1023 18.3263 46.1023C19.5416 46.1023 20.5263 45.1172 20.5263 43.9023V41.2738H23.1553C24.3706 41.2738 25.3553 40.2886 25.3553 39.0738C25.3553 37.8589 24.3706 36.8738 23.1553 36.8738H20.5259V34.2448C20.5259 33.0299 19.5412 32.0448 18.3259 32.0448C17.1106 32.0448 16.1259 33.0299 16.1259 34.2448V36.8738H13.4969C12.2816 36.8738 11.2969 37.8589 11.2969 39.0738C11.2969 40.2886 12.282 41.2738 13.4973 41.2738ZM196.845 124.166H199.474V126.795C199.474 128.01 200.459 128.995 201.674 128.995C202.89 128.995 203.874 128.01 203.874 126.795V124.166H206.503C207.718 124.166 208.703 123.181 208.703 121.966C208.703 120.751 207.718 119.766 206.503 119.766H203.874V117.138C203.874 115.923 202.89 114.938 201.674 114.938C200.459 114.938 199.474 115.923 199.474 117.138V119.766H196.845C195.63 119.766 194.645 120.751 194.645 121.966C194.645 123.181 195.63 124.166 196.845 124.166ZM20.5259 53.3848C20.5259 52.1699 19.5412 51.1848 18.3259 51.1848C17.1106 51.1848 16.1259 52.1699 16.1259 53.3848V55.6855C16.1259 56.9004 17.1106 57.8855 18.3259 57.8855C19.5412 57.8855 20.5259 56.9004 20.5259 55.6855V53.3848ZM18.3259 61.4152C17.1106 61.4152 16.1259 62.4004 16.1259 63.6152V95.9455C16.1259 97.1604 17.1106 98.1455 18.3259 98.1455C19.5412 98.1455 20.5259 97.1604 20.5259 95.9455V63.6152C20.5259 62.3999 19.5412 61.4152 18.3259 61.4152ZM201.674 69.5952C202.89 69.5952 203.874 68.6101 203.874 67.3952V65.0945C203.874 63.8796 202.89 62.8945 201.674 62.8945C200.459 62.8945 199.474 63.8796 199.474 65.0945V67.3952C199.474 68.6105 200.459 69.5952 201.674 69.5952ZM201.674 109.855C202.89 109.855 203.874 108.87 203.874 107.655V75.3254C203.874 74.1105 202.89 73.1254 201.674 73.1254C200.459 73.1254 199.474 74.1105 199.474 75.3254V107.655C199.474 108.871 200.459 109.855 201.674 109.855ZM31.5334 215.6H29.4799C28.2646 215.6 27.2799 216.585 27.2799 217.8C27.2799 219.015 28.2646 220 29.4799 220H31.5334C32.7486 220 33.7334 219.015 33.7334 217.8C33.7334 216.585 32.7486 215.6 31.5334 215.6ZM215.773 169.149C214.084 167.607 211.597 167.233 209.436 168.197L181.72 180.558C180.402 181.146 179.002 181.445 177.559 181.445H157.858C157.886 181.28 157.909 181.115 157.927 180.95C157.932 180.905 157.933 180.859 157.937 180.814C157.958 180.595 157.969 180.376 157.971 180.156C157.971 180.131 157.975 180.107 157.975 180.081C157.975 180.074 157.973 180.068 157.973 180.061C157.973 179.87 157.968 179.678 157.954 179.486C157.648 175.262 154.009 171.953 149.671 171.953H119.491C115.586 171.953 112.124 173.88 110 176.83C107.876 173.88 104.414 171.953 100.509 171.953H70.3299C65.992 171.953 62.3532 175.262 62.0469 179.486C62.0328 179.678 62.028 179.87 62.028 180.061C62.028 180.068 62.0262 180.074 62.0262 180.081C62.0262 180.106 62.0298 180.131 62.0302 180.156C62.0324 180.376 62.0434 180.595 62.0636 180.814C62.0676 180.859 62.0698 180.904 62.0742 180.949C62.0922 181.115 62.1151 181.28 62.1433 181.444H42.4414C40.9986 181.444 39.5986 181.146 38.2808 180.558L10.5638 168.196C8.40388 167.233 5.91612 167.606 4.2274 169.148C2.95448 170.311 2.27556 171.965 2.36444 173.687C2.45332 175.409 3.299 176.985 4.68456 178.01L37.1623 202.052C38.8726 203.318 40.9859 204.015 43.1137 204.015H72.4586C73.4244 204.015 74.2098 204.801 74.2098 205.767V215.6H39.5999C38.3846 215.6 37.3999 216.585 37.3999 217.8C37.3999 219.015 38.3846 220 39.5999 220H76.4098C77.6251 220 78.6098 219.015 78.6098 217.8V205.767C78.6098 202.375 75.8506 199.616 72.4586 199.616H43.1133C41.9213 199.616 40.7377 199.225 39.7794 198.516L7.30168 174.474C6.85684 174.145 6.77016 173.698 6.75828 173.461C6.74596 173.224 6.786 172.77 7.19432 172.397C7.58372 172.041 8.21732 171.968 8.77084 172.215L36.4882 184.577C38.374 185.418 40.3769 185.844 42.441 185.844H64.4295C65.8996 187.304 67.9222 188.208 70.153 188.208H89.4176C90.6328 188.208 91.6176 187.223 91.6176 186.008C91.6176 184.793 90.6328 183.808 89.4176 183.808H70.153C68.943 183.808 67.8686 183.226 67.187 182.329C67.1844 182.326 67.1826 182.322 67.18 182.318C67.0418 182.135 66.8966 181.907 66.7708 181.638C66.7637 181.623 66.7554 181.608 66.7483 181.592C66.7206 181.53 66.6955 181.463 66.67 181.397C66.6515 181.348 66.6322 181.299 66.6154 181.249C66.5983 181.198 66.5833 181.144 66.5679 181.091C66.5494 181.025 66.5314 180.958 66.516 180.89C66.5054 180.842 66.4962 180.793 66.4874 180.743C66.4742 180.671 66.4628 180.598 66.454 180.524C66.4474 180.469 66.443 180.413 66.439 180.356C66.4337 180.287 66.4298 180.217 66.4284 180.147C66.4267 180.035 66.4262 179.922 66.435 179.803C66.575 177.868 68.2857 176.352 70.3295 176.352H100.509C104.529 176.352 107.799 179.623 107.799 183.644V217.8C107.799 219.015 108.784 220 109.999 220C111.215 220 112.199 219.015 112.199 217.8V183.645C112.199 179.624 115.47 176.353 119.49 176.353H149.669C151.713 176.353 153.423 177.869 153.564 179.804C153.573 179.923 153.572 180.036 153.57 180.148C153.569 180.218 153.565 180.287 153.56 180.356C153.556 180.413 153.552 180.47 153.545 180.525C153.536 180.598 153.525 180.671 153.511 180.743C153.502 180.793 153.493 180.843 153.483 180.891C153.468 180.958 153.45 181.025 153.431 181.091C153.416 181.144 153.401 181.199 153.384 181.25C153.367 181.3 153.348 181.349 153.33 181.397C153.304 181.464 153.279 181.53 153.251 181.592C153.244 181.608 153.236 181.623 153.229 181.638C153.103 181.907 152.958 182.135 152.819 182.319C152.817 182.322 152.815 182.326 152.812 182.33C152.131 183.227 151.057 183.809 149.846 183.809H130.582C129.366 183.809 128.382 184.794 128.382 186.009C128.382 187.224 129.366 188.209 130.582 188.209H149.846C152.077 188.209 154.1 187.304 155.57 185.845H177.558C179.622 185.845 181.625 185.418 183.512 184.577L211.228 172.215C211.781 171.968 212.415 172.041 212.805 172.398C213.213 172.77 213.254 173.224 213.241 173.461C213.229 173.698 213.142 174.145 212.698 174.475L180.22 198.516C179.262 199.225 178.078 199.616 176.886 199.616H147.541C144.149 199.616 141.39 202.376 141.39 205.768V217.8C141.39 219.015 142.375 220 143.59 220H180.4C181.615 220 182.6 219.015 182.6 217.8C182.6 216.585 181.615 215.6 180.4 215.6H145.79V205.767C145.79 204.802 146.575 204.016 147.541 204.016H176.886C179.014 204.016 181.128 203.318 182.837 202.052L215.315 178.011C216.701 176.985 217.546 175.409 217.635 173.687C217.724 171.966 217.045 170.311 215.773 169.149ZM190.52 215.6H188.466C187.251 215.6 186.266 216.585 186.266 217.8C186.266 219.015 187.251 220 188.466 220H190.52C191.735 220 192.72 219.015 192.72 217.8C192.72 216.585 191.735 215.6 190.52 215.6Z" fill="#1C1D21"/>
</svg>
