<svg width="220" height="220" viewBox="0 0 220 220" fill="none" xmlns="http://www.w3.org/2000/svg">
<path d="M110 199.11C159.214 199.11 199.11 159.214 199.11 110C199.11 60.7858 159.214 20.8899 110 20.8899C60.7859 20.8899 20.8899 60.7858 20.8899 110C20.8899 159.214 60.7859 199.11 110 199.11Z" fill="#6C5BD9"/>
<path d="M182.393 97.5703L154.204 87.6796L158.742 57.485C158.922 56.29 157.765 55.3334 156.625 55.7342L126.018 66.4927L111.725 39.39C111.125 38.2522 109.497 38.2486 108.892 39.3843L94.3524 66.6806L63.3109 55.7892C62.1708 55.3893 61.0145 56.3463 61.1945 57.5413L65.7401 87.6804L37.6056 97.5694C36.6821 97.8942 36.2623 98.9634 36.719 99.8297L56.6022 137.551L48.6677 152.447C48.0987 153.515 48.8727 154.804 50.0827 154.804H65.6961L75.5217 173.445C76.3639 175.043 78.7949 174.244 78.5256 172.458L75.8632 154.804H144.114L141.468 172.41C141.199 174.196 143.629 174.994 144.471 173.397L154.28 154.804H169.931C171.138 154.804 171.912 153.521 171.349 152.453L163.436 137.448L183.28 99.8319C183.738 98.9647 183.318 97.8946 182.393 97.5703Z" fill="#FDDF7F"/>
<path d="M163.436 137.447L154.28 154.803H144.114L150.429 112.795L163.436 137.447Z" fill="#ECF4F7"/>
<path d="M69.5837 113.166L56.6024 137.551L65.6963 154.804H75.8634L69.5837 113.166Z" fill="#ECF4F7"/>
<path d="M94.3526 66.6803L87.1722 80.1465L109.932 72.1464L94.3526 66.6803Z" fill="#ECF4F7"/>
<path d="M126.018 66.4923L109.932 72.1463L133.32 80.3523L126.018 66.4923Z" fill="#ECF4F7"/>
<path d="M133.32 80.3523L150.429 112.795L154.204 87.6796L133.32 80.3523Z" fill="#ECF4F7"/>
<path d="M87.1723 80.1465L69.5838 113.166L65.7404 87.6798L87.1723 80.1465Z" fill="#ECF4F7"/>
<path d="M115.335 6.96652C115.335 5.75168 116.32 4.76652 117.535 4.76652H120.101V2.2C120.101 0.98516 121.086 0 122.301 0C123.516 0 124.501 0.98516 124.501 2.2V4.76652H127.068C128.282 4.76652 129.268 5.75168 129.268 6.96652C129.268 8.18136 128.282 9.16652 127.068 9.16652H124.501V11.733C124.501 12.9479 123.516 13.933 122.301 13.933C121.086 13.933 120.101 12.9479 120.101 11.733V9.16652H117.535C116.32 9.16652 115.335 8.18136 115.335 6.96652ZM101.999 210.833H99.432V208.267C99.432 207.052 98.4469 206.067 97.232 206.067C96.0172 206.067 95.032 207.052 95.032 208.267V210.833H92.4655C91.2507 210.833 90.2655 211.819 90.2655 213.033C90.2655 214.248 91.2507 215.233 92.4655 215.233H95.032V217.8C95.032 219.015 96.0172 220 97.232 220C98.4469 220 99.432 219.015 99.432 217.8V215.233H101.999C103.213 215.233 104.199 214.248 104.199 213.033C104.199 211.819 103.214 210.833 101.999 210.833ZM110 201.31C59.6512 201.31 18.6898 160.349 18.6898 110C18.6898 59.6512 59.6512 18.6899 110 18.6899C160.349 18.6899 201.31 59.6512 201.31 110C201.31 160.349 160.349 201.31 110 201.31ZM110 196.91C157.923 196.91 196.91 157.923 196.91 110C196.91 62.0774 157.923 23.0899 110 23.0899C62.0774 23.0899 23.0898 62.0774 23.0898 110C23.0898 157.923 62.0774 196.91 110 196.91ZM107.897 9.1872C107.912 9.1872 107.927 9.1872 107.942 9.18676C108.626 9.17312 109.312 9.16652 110 9.16652C111.215 9.16652 112.2 8.18136 112.2 6.96652C112.2 5.75168 111.215 4.76652 110 4.76652C109.283 4.76652 108.567 4.77356 107.854 4.78764C106.639 4.81184 105.674 5.81636 105.699 7.0312C105.722 8.23108 106.702 9.1872 107.897 9.1872ZM99.6912 9.68704C100.9 9.56428 101.781 8.48496 101.658 7.27628C101.535 6.0676 100.455 5.18936 99.2472 5.30948C73.4597 7.92748 49.6152 19.9782 32.1059 39.2418C14.476 58.6384 4.76648 83.7672 4.76648 110C4.76648 111.215 5.75164 112.2 6.96648 112.2C8.18132 112.2 9.16648 111.215 9.16648 110C9.16648 58.0514 48.0836 14.9257 99.6912 9.68704ZM112.47 210.804C111.65 210.823 110.819 210.833 110 210.833C108.785 210.833 107.8 211.819 107.8 213.033C107.8 214.248 108.785 215.233 110 215.233C110.854 215.233 111.72 215.223 112.575 215.203C113.79 215.174 114.751 214.166 114.722 212.951C114.693 211.736 113.684 210.767 112.47 210.804ZM213.033 107.8C211.819 107.8 210.833 108.785 210.833 110C210.833 161.122 172.606 204.172 121.914 210.137C120.707 210.28 119.844 211.373 119.986 212.579C120.118 213.699 121.068 214.522 122.168 214.522C122.254 214.522 122.341 214.518 122.428 214.507C175.336 208.281 215.233 163.353 215.233 110C215.233 108.785 214.248 107.8 213.033 107.8ZM80.7012 172.129C80.9837 174 79.9251 175.719 78.1277 176.31C77.7189 176.444 77.3058 176.509 76.9018 176.509C75.5295 176.509 74.2574 175.763 73.5759 174.47L64.3689 157.003H50.0759C48.7278 157.003 47.509 156.314 46.8151 155.158C46.1212 154.002 46.0856 152.602 46.7192 151.412L54.109 137.538L34.7727 100.855C34.2566 99.8752 34.1924 98.7228 34.5967 97.6923C35.0006 96.6618 35.8318 95.8602 36.8759 95.4928L63.2931 86.2074L59.0189 57.8684C58.8183 56.5374 59.3172 55.2301 60.3543 54.3717C61.391 53.5132 62.7686 53.2673 64.0389 53.7121L93.2923 63.976L106.943 38.3491C107.605 37.1052 108.891 36.3339 110.3 36.3339C110.302 36.3339 110.305 36.3339 110.308 36.3339C111.719 36.3365 113.005 37.114 113.664 38.3627L127.072 63.789L155.895 53.658C157.165 53.2114 158.543 53.4574 159.58 54.3154C160.618 55.1734 161.117 56.4802 160.917 57.8116L156.649 86.2061L183.121 95.4941C184.166 95.8606 184.998 96.6623 185.402 97.6932C185.807 98.7246 185.743 99.8778 185.226 100.857L165.92 137.453L173.288 151.426C173.915 152.615 173.875 154.012 173.18 155.164C172.485 156.315 171.268 157.003 169.924 157.003H155.606L146.416 174.422C145.533 176.095 143.663 176.851 141.866 176.261C140.069 175.671 139.01 173.953 139.291 172.082L141.558 157.003H78.4198L80.7012 172.129ZM142.22 152.603L148.146 113.182L131.777 82.1423L109.933 74.4779L88.7106 81.9372L71.8674 113.558L77.7559 152.603H142.22ZM68.4002 120.069L59.0889 137.549L67.0238 152.603H73.3066L68.4002 120.069ZM70.7678 106.264L82.577 84.0937L68.1872 89.1519L70.7678 106.264ZM103.293 72.1486L95.4003 69.3792L91.7672 76.1996L103.293 72.1486ZM128.759 76.4205L124.951 69.1992L116.572 72.1446L128.759 76.4205ZM151.758 89.1532L137.881 84.2842L149.249 105.842L151.758 89.1532ZM146.67 152.603H152.953L160.945 137.454L151.608 119.748L146.67 152.603ZM150.632 157.003H146.008L144.166 169.26L150.632 157.003ZM163.432 142.169L157.928 152.603H168.935L163.432 142.169ZM155.984 90.636L152.712 112.408L163.433 132.739L181.012 99.4176L155.984 90.636ZM129.148 67.7244L134.863 78.5624L152.424 84.7238L156.42 58.1385L129.148 67.7244ZM97.493 65.4504L109.932 69.8148L122.877 65.2648L110.298 41.4119L97.493 65.4504ZM63.5179 58.1926L67.5188 84.7224L85.6332 78.3552L91.1996 67.9052L63.5179 58.1926ZM56.609 132.845L67.2997 112.775L63.961 90.6374L38.9875 99.4154L56.609 132.845ZM62.0496 152.603L56.5884 142.243L51.0694 152.603H62.0496ZM75.8247 169.301L73.9701 157.003H69.3426L75.8247 169.301Z" fill="#1C1D21"/>
</svg>
