<svg width="37" height="37" viewBox="0 0 37 37" fill="none" xmlns="http://www.w3.org/2000/svg">
<path d="M18.5 29.2916C24.4601 29.2916 29.2917 24.4601 29.2917 18.5C29.2917 12.5399 24.4601 7.70831 18.5 7.70831C12.54 7.70831 7.70837 12.5399 7.70837 18.5C7.70837 24.4601 12.54 29.2916 18.5 29.2916Z" stroke="white" stroke-width="3" stroke-linecap="round" stroke-linejoin="round"/>
<path d="M18.5 13.875V18.5L20.8125 20.8125" stroke="white" stroke-width="3" stroke-linecap="round" stroke-linejoin="round"/>
<path d="M25.4529 26.7479L24.9133 32.6525C24.8438 33.4212 24.4886 34.136 23.9177 34.6555C23.3468 35.175 22.6018 35.4615 21.8299 35.4583H15.1545C14.3827 35.4615 13.6377 35.175 13.0668 34.6555C12.4959 34.136 12.1407 33.4212 12.0712 32.6525L11.5316 26.7479M11.547 10.2521L12.0866 4.34748C12.1558 3.5814 12.5089 2.86885 13.0765 2.34972C13.6442 1.83059 14.3853 1.54238 15.1545 1.54165H21.8608C22.6327 1.53852 23.3776 1.82501 23.9485 2.34451C24.5194 2.86401 24.8747 3.57874 24.9441 4.34748L25.4837 10.2521" stroke="white" stroke-width="3" stroke-linecap="round" stroke-linejoin="round"/>
</svg>