<svg width="580" height="499" viewBox="0 0 580 499" fill="none" xmlns="http://www.w3.org/2000/svg">
<path fill-rule="evenodd" clip-rule="evenodd" d="M180.811 226.642C182.922 250.501 185.032 274.361 187.142 298.22C198.633 290.879 210.123 283.537 221.613 276.196V330.551V344.838C221.613 346.102 220.943 350.445 221.613 351.54C222.182 352.468 226.392 352.495 227.387 352.651C233.884 353.67 240.396 354.576 246.918 355.382C264.105 357.507 282.501 360.552 299.755 358.11C314.752 355.987 329.291 350.014 342.993 343.065C347.804 340.625 352.547 338.013 357.203 335.222C358.189 334.631 361.773 333.234 362.309 332.03C362.747 331.045 361.719 327.589 361.582 326.555C361.003 322.195 360.423 317.835 359.845 313.476L351.758 252.599L367.034 269.679C368.231 271.017 370.503 274.817 372.159 275.41C373.373 275.845 376.38 274.498 377.58 274.24C386.23 272.374 394.88 270.506 403.53 268.641C405.545 268.206 410.086 268.222 411.785 266.859C412.7 266.125 412.743 264.631 413.066 263.215C415.175 253.96 417.285 244.706 419.395 235.453C419.775 233.786 421.895 228.53 421.356 226.851C421.162 226.25 420.227 225.838 419.655 225.446C406.6 216.518 393.544 207.59 380.489 198.662C373.338 193.771 366.186 188.88 359.034 183.989C356.039 181.94 352.359 178.248 348.965 177.102C346.857 176.391 343.792 176.924 341.611 176.854C337.18 176.712 332.749 176.571 328.318 176.429C327.624 176.408 325.194 175.854 324.61 176.311C324.124 176.692 324.326 177.223 324.167 178.13C323.777 180.348 323.774 182.738 323.582 184.988C323.428 186.794 323.734 190.105 323.007 191.74C322.543 192.784 323.132 192.368 322.504 192.873C321.756 193.475 319.368 193.281 318.478 193.396C314.136 193.961 309.794 194.526 305.452 195.09C300.29 195.762 295.07 197.022 289.883 196.441C282.02 195.562 273.542 195.606 265.821 193.751C263.815 193.269 263.092 192.003 261.544 190.273C258.524 186.895 255.533 183.478 252.479 180.137C250.982 178.499 251.623 178.777 250.08 179.398C248.146 180.176 246.185 182.054 244.435 183.248C237.729 187.822 231.023 192.396 224.316 196.97L183.373 224.894C182.519 225.477 181.665 226.059 180.811 226.642Z" fill="#6C5BD9"/>
<path fill-rule="evenodd" clip-rule="evenodd" d="M572.419 229.608C563.979 265.486 547.005 304.606 512.807 316.041C504.492 318.822 496.404 320.921 487.768 319.862C486.946 319.761 486.258 319.89 485.477 319.907C484.076 319.937 485.286 320.5 483.714 319.957C482.49 319.534 481.344 318.475 480.067 318.007C476.673 316.763 473.056 316.523 469.607 315.518C461.133 313.05 452.4 310.003 444.189 306.598C440.322 304.996 436.769 302.764 433.132 300.617C429.435 298.435 425.517 297.079 421.779 295.078C418.824 293.496 413.763 291.435 411.686 288.467C409.471 285.303 412.535 278.566 413.411 275.202C416.39 263.755 419.937 252.475 422.176 240.8C429.905 250.831 440.634 257.043 451.741 261.049C457.768 263.223 463.967 264.795 470.235 265.778C475.926 266.671 482.065 267.752 487.77 266.484C492.077 265.527 497.482 263.311 500.558 259.63C501.655 258.316 502.972 255.908 502.357 253.999C501.576 251.577 499.302 252.717 498.071 250.909C496.999 249.334 497.167 245.651 496.825 243.733C496.22 240.339 495.39 237.038 494.376 233.771C492.409 227.427 489.957 221.069 489.369 214.319C488.858 208.463 490.049 202.924 492.659 197.843C493.891 195.44 496.988 188.905 500.01 189.176C503.328 189.474 498.853 205.135 498.707 208.33C498.127 220.993 499.644 234.486 505.448 245.586C507.67 249.836 510.883 254.784 515.628 255.311C520.653 255.868 524.707 251.441 527.099 246.962C532.936 236.033 529.993 221.037 527.037 209.583C523.411 195.529 513.947 185.843 507.963 173.222C516.897 174.227 521.682 180.582 526.266 188.645C531.315 197.521 535.244 208.178 537.182 218.506C538.161 223.725 537.485 228.965 537.492 234.234C537.494 235.985 537.493 242.443 540.042 242.189C542.767 241.917 543.701 234.633 544.102 232.411C545.02 227.314 546.014 222.217 546.811 217.095C548.222 208.033 548.85 198.752 550.54 189.752C550.826 188.231 551.394 184.011 553.428 185.15C554.997 186.028 554.744 192.556 554.802 194.073C554.943 197.812 555.141 201.551 555.168 205.294C555.208 210.841 554.22 216.583 554.705 222.097C555.021 225.7 556.748 229.68 558.889 224.822C561.012 220.003 561.444 213.994 562.628 208.813C563.872 203.372 565.156 197.852 567.794 193.019C568.526 191.679 569.313 189.55 570.94 190.181C572.122 190.64 572.995 193.777 573.361 194.884C575.009 199.888 574.73 205.452 574.625 210.69C574.498 217.109 573.883 223.385 572.419 229.608ZM407.842 238.919C407.391 238.755 405.475 238.552 405 238.505C404.443 238.451 405.075 237.302 403.727 237.629C403.988 238.351 404.449 238.833 405.114 239.074C403.088 239.842 401.593 237.946 400.207 237.702C398.881 237.469 398.825 237.702 397.516 239.27C396.099 237.334 396.364 238.542 395.198 238.542C394.774 238.543 394.756 239.26 394.066 239.174C393.463 239.099 393.4 238.076 393.044 237.955C391.109 237.3 389.119 240.598 386.926 237.737C386.394 240.714 380.304 236.985 377.961 237.508C375.505 238.055 376.564 239.041 374.579 237.356C372.688 235.751 373.216 236.817 371.016 238.131C371.067 238.101 369.773 239.078 369.894 239.094C368.371 238.895 368.457 237.132 366.529 237.225C364.488 237.325 363.616 239.117 361.747 236.911C361.341 238.563 361.257 237.851 360.3 238.268C359.773 238.408 359.313 238.253 358.917 237.803C358.798 238.257 358.535 238.536 358.128 238.638C357.085 238.742 355.128 238.905 354.181 238.343C352.76 237.499 353.902 237.175 352.916 236.226C352.475 238.843 351.507 238.286 349.465 238.531C347.908 238.718 347.564 238.183 346.077 237.922C344.611 237.666 342.718 238.303 341.288 238.574C340.698 238.687 339.908 239.147 339.307 238.986C338.766 238.84 338.534 238.369 338.211 238.246C337.818 238.098 337.902 237.714 337.224 237.527C336.756 237.4 335.918 237.891 335.451 237.976C332.118 238.581 328.918 238.587 325.74 237.12C327.305 240.2 322.081 238.537 321.149 237.261C319.985 239.304 318.576 237.862 316.229 238.021C313.97 238.175 310.57 238.95 309.654 235.799C309.475 236.439 308.192 238.298 307.682 238.582C306.201 239.404 306.024 238.188 304.647 237.693C302.772 237.018 303.163 238.298 302 238.558C300.038 238.998 298.978 237.451 297.244 236.628C297.17 237.907 297.133 238.694 296.145 239.49C295.271 235.925 292.15 239.782 292.686 235.017C291.498 235.883 289.828 236.548 289.49 238.298C291.475 237.687 289.701 239.14 289.618 239.188C289.356 239.342 288.469 237.948 288.264 237.752C288.207 238.409 288.151 239.067 288.096 239.724C287.304 239.281 286.562 238.488 285.92 238.091C285.341 237.733 286.17 236.988 285.193 236.937C284.678 236.909 284.14 238.158 283.599 238.265C282.773 238.427 283.17 237.1 282.824 237.144C282.297 237.212 281.438 238.075 281.039 238.058C279.733 238.004 280.617 237.323 279.62 237.011C277.838 236.452 277.952 237.757 276.671 238.228C273.74 239.305 274.034 234.347 271.052 237.654C270.339 238.445 269.879 239.667 268.902 239.599C266.878 239.457 267.589 236.771 268 235.455C268.426 235.69 260.606 240.187 260.668 240.011C260.717 238.933 261.947 238.101 260.848 237.143C259.949 239.302 259.003 239.34 256.93 239.742C255.923 239.938 255.724 240.199 254.646 239.73C253.959 239.432 253.498 238.205 252.815 238.137C252.907 238.147 251.654 239.215 251.463 239.311C250.332 239.882 249.616 239.235 248.517 239.47C247.579 239.67 247.21 240.562 246.278 240.318C245.034 239.992 245.764 238.328 244.052 238.792C243.467 238.951 243.115 240.214 242.193 240.474C240.755 240.882 238.994 240.122 237.475 240.519C236.269 240.834 235.374 240.967 234.32 241.033C233.468 241.086 233.818 240.344 232.25 241.22L231.585 239.343C230.8 240.134 230.015 240.924 229.23 241.715C229.081 241.006 228.987 240.288 228.947 239.561C227.776 240.875 226.302 241.099 224.728 241.217C223.024 241.345 221.754 241.76 220.096 242.11C219.572 242.22 218.221 242.396 217.791 242.19C217.854 242.22 216.984 241.815 217.246 241.892C217.133 241.635 217.028 241.373 216.932 241.106C216.785 240.366 216.309 240.334 215.505 241.009C215.089 240.937 214.283 240.326 213.868 240.477C212.798 240.865 212.944 241.794 211.878 241.657C211.187 241.569 210.834 240.425 210.114 240.347C209.012 240.229 208.057 241.609 207.064 241.91C210.083 240.993 203.15 241.705 205.305 241.768C203.892 241.727 202.424 241.648 201.118 242.357C200.396 241.805 201.273 240.694 200.544 240.237C199.882 239.822 199.831 240.918 199.754 240.942C200.171 240.809 199.963 241.741 199.546 241.906C198.245 242.423 197.204 241.11 197.137 239.808C196.031 241.671 195.721 240.922 194.096 241.037C192.493 241.151 191.11 242.092 189.506 242.074C186.334 242.04 184.182 240.806 183.123 237.635C186.503 238.097 189.905 235.663 193.21 236.236C194.296 236.424 194.974 237.338 195.926 237.176C197.098 236.976 197.917 235.544 199.421 235.39C202.736 235.05 206.005 235.381 209.344 234.812C213.331 234.131 217.493 233.729 221.519 234.06C224.63 234.316 227.15 232.984 230.305 232.728C234.384 232.395 238.497 232.336 242.584 232.096C246.782 231.849 251.3 231.099 255.487 231.34C256.795 231.414 257.92 231.558 259.217 231.471C259.765 231.434 260.285 231.016 260.86 231.079C261.611 231.16 261.932 232.019 262.71 231.989C264.032 231.939 265.445 230.72 267.015 230.687C269.598 230.632 272.17 230.638 274.76 230.474C277.04 230.328 279.483 229.732 281.752 229.765C283.353 229.787 283.749 231.314 284.682 231.472C286.359 231.755 294.846 226.348 295.579 231.201C299.997 227.815 305.923 230.682 310.841 230.046C317.158 229.229 323.592 229.957 329.953 229.666C336.425 229.37 343.083 229.644 349.53 230.328C352.201 230.611 354.78 230.876 357.458 230.705C358.652 230.628 360.032 230.287 361.226 230.595C361.515 230.67 363.729 232.4 363.454 232.45C364.663 231.234 363.845 231.056 365.972 230.994C367.612 230.945 369.163 231.342 370.794 231.45C373.721 231.644 376.67 231.19 379.59 231.29C382.029 231.374 384.413 231.776 386.864 231.796C389.507 231.818 392.627 231.901 394.539 234.286C394.337 233.537 394.136 232.789 393.933 232.04C396.883 232.298 399.797 233.476 402.779 232.926C402.025 233.735 401.259 234.395 400.971 235.582C402.579 235.353 403.668 234.097 405.36 234.087C406.782 234.077 407.078 234.876 408.579 233.844C408.764 235.108 408.949 236.373 409.134 237.636C411.213 237.088 409.848 235.353 410 233.788C411.69 234.356 413.121 233.704 412.455 236.425C411.941 238.523 409.601 239.558 407.842 238.919ZM404.921 262.292C404.195 264.572 397.925 263.269 396.442 263.028C394.526 262.718 392.334 262.225 390.571 261.98C390.359 261.664 390.105 261.396 389.81 261.176C389.587 261.522 389.307 261.768 388.968 261.912C388.157 262.11 388.154 263.047 387.09 262.84C387.04 264.225 387.9 263.438 388.559 263.941C386.899 265.186 387.658 263.752 386.727 263.775C386.497 263.409 386.175 263.265 385.763 263.344C385.238 263.496 384.755 263.747 384.313 264.098C383.898 264.589 383.543 264.613 383.247 264.175C382.963 263.856 382.618 263.658 382.209 263.584C380.574 263.881 380.117 264.693 378.276 264.561C375.646 264.371 372.801 265.147 370.212 264.738C368.607 264.485 365.926 261.662 365.197 264.414C364.088 262.374 362.321 260.987 361.259 258.903C366.207 258.582 371.153 258.2 376.104 258C380.44 257.826 385.183 258.372 389.234 258.143C393.029 257.929 397.048 257.459 400.923 257.072C405.031 256.661 406.39 257.67 404.921 262.292ZM275.849 262.628C277.646 263.185 279.356 261.923 281.098 262.322C281.674 262.453 282.867 263.628 283.129 263.651C283.609 263.694 285.019 262.541 285.624 262.386C289.451 261.411 294.086 261.515 297.912 262.114C299.94 262.431 300.251 261.392 302.021 260.888C303.86 260.363 306.474 260.767 308.411 260.622C312.967 260.281 317.522 260.524 322.048 260.15C326.694 259.767 331.317 259.56 335.965 259.292C339.131 259.11 346.74 257.088 349.364 259.72C351.528 261.89 348.74 265.657 346.576 266.518C344.957 267.159 344.182 265.806 342.98 265.936C341.611 266.083 342.089 267.893 340.867 266.213C340.11 267.884 335.353 267.172 333.99 267.282C331.019 267.522 328.506 268.19 326.483 265.087C326.62 265.981 326.757 266.877 326.895 267.771C324.213 266.167 321.335 266.68 319.007 267.24C317.855 267.517 314.316 269.431 313.068 268.605C312.209 268.038 313.723 267.067 312.273 266.582C311.514 266.328 310.202 267.741 309.274 267.67C306.705 267.472 307.434 265.538 304.91 267.999C304.055 267.172 303.771 265.764 303.884 264.558C302.051 266.308 302.204 269.226 298.927 268.692C297.705 268.493 297.481 267.099 296.844 266.841C295.488 266.293 295.334 267.278 294.159 268.059C293.715 268.353 293.174 268.827 292.652 268.886C291.579 269.006 291.409 268.454 291.262 268.472C290.548 268.56 289.649 268.967 288.802 268.676C288.042 268.416 287.819 266.913 286.48 267.265C285.199 267.601 285.188 268.576 285.42 270.035C284.156 269.888 283.392 269.1 282.446 268.246C281.492 270.74 279.482 268.675 278.37 270.778C276.922 268.842 275.993 269.375 274.197 267.485C274.285 268.273 274.373 269.062 274.461 269.852C273.059 269.549 272.436 268.442 271.239 269.907C270.078 267.485 266.559 270.935 264.751 268.597C263.945 271.559 258.613 270.85 256.362 270.901C254.366 270.947 252.889 270.764 250.939 271.283C249.216 271.741 246.828 272.217 245.207 272.007C244.149 271.87 242.991 271.653 241.672 271.814C239.77 272.044 238.127 273.147 236.157 272.625C233.191 271.84 231.373 267.477 234.677 265.561C236.938 264.25 241.011 264.735 243.499 264.493C247.623 264.092 252.245 263.251 256.374 263.634C259.595 263.932 262.531 263.071 265.817 262.708C268.291 262.435 272.346 261.942 273.96 264.687C274.579 263.886 274.515 262.215 275.849 262.628ZM230.705 300.21C230.262 297.741 249.116 296.381 250.987 296.22C254.916 295.881 258.855 295.639 262.794 295.527C266.031 295.435 269.052 296.127 272.29 295.57C275.314 295.051 278.964 293.986 281.596 296.383C281.983 293.105 293.332 294.702 295.491 294.711C304.889 294.749 313.883 294.773 322.974 294.122C328.17 293.749 333.687 293.248 338.883 293.539C341.227 293.671 343.114 294.37 345.445 293.763C346.965 293.368 348.603 292.544 350.058 293.708C351.759 295.072 352.486 299.7 351.314 301.632C350.46 303.039 349.704 302.884 348.34 302.64C346.244 302.266 344.686 301.723 342.548 302.677C342.894 302.522 341.115 302.967 341.262 302.954C338.841 303.157 335.519 305.051 333.432 302.868C334.268 303.032 335.483 301.36 334.429 301.223C333.638 301.12 333.135 302.07 332.518 302.388C330.405 303.477 329.323 303.136 328.061 300.853C325.517 303.319 325.242 302.637 324.125 299.6C323.265 300.341 323.08 302.096 322.403 302.671C322.302 302.757 322.719 303.823 322.23 303.779C321.777 303.738 321.628 302.905 321.279 302.84C321.057 302.798 320.941 302.068 320.727 302.023C320.496 301.975 320.259 302.441 319.997 302.428C319.298 302.391 317.298 304.057 318.015 301.719C316.955 303.228 316.5 302.266 316.117 300.892C314.894 301.934 313.671 302.975 312.447 304.016C311.878 302.245 310.899 302.727 309.668 303.346C310.039 302.116 309.806 300.952 308.875 301.807C308.336 302.303 307.974 303.874 307.422 304.542C305.189 302.009 304.377 302.704 301.291 303.033C300.113 303.158 298.649 303.402 297.597 302.605C296.672 301.905 296.149 299.336 294.566 301.411C294.919 300.95 294.367 304.496 294.269 305.059C293.572 304.533 292.979 303.885 292.491 303.118C291.581 305.135 289.19 303.325 287.232 303.737C284.149 304.387 280.969 305.48 278.246 302.911C278.054 303.74 275.823 304.797 275.819 304.829C275.952 303.36 276.779 303.876 275.089 303.598C274.778 303.547 274.425 304.173 274.132 304.241C273.124 304.475 271.947 304.253 270.931 304.221C266.707 304.085 262.84 305.133 258.668 305.513C257.262 305.64 255.594 305.892 254.274 305.299C252.914 304.686 252.951 303.991 251.575 304.386C252.011 304.262 250.716 305.785 250.785 305.728C250.601 305.878 249.829 305.135 249.555 305.19C249.475 305.515 249.395 305.84 249.315 306.165C248.983 306.119 248.651 306.073 248.32 306.028C247.413 306.164 246.595 305.136 245.742 305.102C245.899 305.108 243.442 306.132 243.554 306.194C241.839 305.236 242.332 305.514 240.156 306.097C238.099 306.648 236.052 306.519 233.942 306.863C227.804 307.861 231.461 304.417 230.705 300.21ZM225.285 334.568C224.131 332.735 227.201 332.101 228.183 331.94C229.795 331.673 231.935 332.203 233.01 331.916C234.647 331.48 236.227 330.44 238.07 330.157C240.395 329.801 242.739 329.743 245.074 329.521C245.852 329.445 246.815 329.146 247.572 329.196C248.699 329.272 249.167 329.94 250.077 329.944C251.627 329.953 253.539 328.858 255.128 328.657C257.162 328.399 259.216 328.277 261.26 328.164C265.567 327.924 269.829 328.024 274.133 328.018C276.097 328.015 281.325 325.734 282.304 328.292C283.665 326.354 287.156 326.618 289.102 326.561C292.53 326.463 295.922 326.093 299.347 325.914C302.28 325.761 305.557 326.464 308.437 325.972C310.024 325.701 310.55 325.131 312.35 325.389C313.687 325.579 315.726 324.788 316.874 325.137C316.814 325.119 318.306 326.154 317.841 326.187C318.353 326.15 318.323 326.552 318.888 326.373C319.63 326.138 319.29 325.093 320.828 324.722C323.228 324.143 326.428 324.813 328.921 324.664C331.339 324.52 333.755 324.458 336.176 324.471C337.29 324.476 338.669 324.178 339.753 324.422C340.284 324.541 341.413 325.317 341.863 325.239C343.139 325.016 343.789 324.024 345.514 324.085C347.469 324.155 349.229 324.124 351.173 323.957C353.056 323.796 353.358 323.495 354.291 325.249C355.216 326.989 355.471 329.254 353.769 330.437C354.874 330.355 356.234 332.013 354.932 332.931C354.126 333.498 352.512 332.218 351.548 332.31C350.36 332.424 349.428 333.127 348.136 333.171C346.777 333.218 345.397 333.601 344.057 333.63C342.661 333.66 341.606 332.962 340.282 333.259C339.117 333.522 338.994 334.59 337.591 333.652C336.894 333.184 336.777 331.455 335.825 331.439C334.551 331.417 335.059 333.26 334.327 334.115C334.13 331.478 332.312 335.84 331.59 332.64C330.923 333.703 328.457 335.189 327.262 334.336C326.173 333.558 326.535 331.797 326.081 330.528C325.326 332.808 323.3 335.174 323.483 331.023C322.499 332.38 319.839 332.165 320.506 334.539C319.704 334.522 319.514 333.24 318.839 333.143C318.257 333.059 317.794 333.561 317.705 333.553C318.024 333.583 316.751 334.057 316.731 334.063C317.593 333.866 314.245 333.532 314.814 333.537C314.037 333.531 313.086 334.243 312.178 334.24C311.35 334.238 310.527 333.873 309.709 333.769C307.591 333.498 308.032 334.019 306.702 334.764C306.21 335.04 306.086 335.507 305.386 335.449C304.87 335.405 304.677 334.651 304.619 334.645C303.893 334.563 304.429 334.29 303.302 334.416C303.172 334.666 303.044 334.914 302.914 335.163C302.507 335.746 301.979 335.892 301.331 335.601C299.663 336.001 294.131 337.738 294.673 334.523C293.825 334.986 292.977 335.451 292.13 335.915C291.766 333.322 287.161 336.759 286.132 336.933C284.812 337.154 284.69 336.588 283.443 336.286C283.218 336.232 282.767 337.063 282.24 336.943C280.871 336.635 280.627 336.482 280.392 334.818C279.416 336.861 278.605 335.947 276.834 336.283C276.442 336.357 276.192 337.221 275.63 337.072C275.224 336.965 275.214 336.135 274.934 336.029C274.683 335.931 274.72 335.277 274.35 335.184C273.925 335.076 272.477 336.406 272.061 336.612C271.124 337.074 269.585 337.839 268.67 337.61C267.539 337.328 268.042 336.388 266.444 336.494C263.923 336.659 262.871 339.062 261.302 335.276C260.594 336.792 260.684 337.204 259.547 337.705C258.707 338.074 256.579 337.688 255.472 337.642C250.748 337.447 246.102 339.25 241.417 338.778C239.357 338.57 237.621 338.109 235.542 338.486C233.358 338.883 231.222 339.466 229.007 339.701C227.88 339.82 225.526 340.183 224.973 338.57C224.487 337.151 226.301 336.183 225.285 334.568ZM234.551 392.773C228.423 397.364 223.347 403.632 217.72 408.94C212.079 414.262 207.601 420.178 202.528 426.071C197.837 431.519 193.527 436.673 187.856 440.789C184.267 443.395 181.066 446.602 177.38 449.058C174.619 450.898 170.436 453.318 171.783 447.691C173.163 441.924 175.712 436.095 177.926 430.708C181.073 423.053 184.243 415.467 187.648 407.957C188.927 405.135 189.643 402.326 191.673 400.078C193.881 397.631 195.427 394.437 197.844 392.125C208.015 382.403 223.343 389.914 234.551 392.773ZM253.776 396.069C250.996 397.701 247.884 398.105 244.938 399.184C242.428 400.103 240.093 401.738 237.393 401.86C239.851 399.793 241.963 396.985 244.734 395.417C247.851 393.652 250.68 394.937 253.776 396.069ZM375.794 409.667C365.568 405.804 356.048 400.112 346.089 395.53C344.369 394.739 330.923 389.781 331.196 387.421C340.619 385.488 350.323 382.172 359.768 385.788C368.36 389.078 375.348 396.969 382 403.573C383.735 405.296 394.469 413.144 393.508 415.643C392.843 417.376 387.672 416.903 386.45 416.548C384.872 416.089 383.964 415.016 382.727 413.838C380.658 411.87 378.369 410.64 375.794 409.667ZM356.917 345.125C358.47 343.524 359.4 341.097 360.883 339.619C362.79 337.721 365.866 338.646 367.949 339.632C374.202 342.59 379.546 347.564 385.76 350.65C392.647 354.072 398.608 358.643 404.82 363.354C410.497 367.661 416.636 371.226 422.432 375.335C428.337 379.524 434.948 382.246 440.934 386.286C447.026 390.398 453.095 394.527 458.95 399.057C469.39 407.137 480.26 415.435 487.984 426.922C491.953 432.827 495.67 439.524 498.582 446.155C501.231 452.182 504.103 460.549 500.671 466.819C497.376 472.841 491.759 477.584 487.004 482.077C485.204 483.778 483.491 485.844 481.157 486.583C478.319 487.478 475.006 487.231 472.087 487.496C456.478 488.913 441.936 487.575 426.553 484.45C411.721 481.436 396.826 479.748 381.88 477.654C373.449 476.472 365.019 475.096 356.701 473.128C353.146 472.286 349.528 471.316 346.049 470.17C343.011 469.169 340.456 466.965 337.332 466.092C324.073 462.385 308.904 460.968 295.778 454.732C307.394 449.327 319.737 446.062 331.642 441.571C344.172 436.844 356.409 432.878 369.615 431.535C376.411 430.844 382.493 428.9 389.03 426.867C395.26 424.928 401.763 424.334 408.162 423.466C411.008 423.079 419.129 423.658 420.072 419.493C421.476 413.292 413.497 412.576 410.095 413.132C405.27 413.92 401.291 415.268 397.598 410.836C393.827 406.309 390.163 401.675 386.324 397.206C379.206 388.92 371.869 379.335 361.806 375.617C349.531 371.082 335.296 375.387 323.047 377.966C310.11 380.691 297.194 383.298 284.499 387.259C279.242 388.898 272.462 392.51 267.006 391.931C261.629 391.357 255.538 390.372 250.342 388.636C247.991 387.851 246.058 386.395 243.954 385.038C241.219 383.272 238.221 382.141 235.318 380.768C229.447 377.994 223.724 375.438 217.39 374.348C212.056 373.429 206.391 372.885 201.223 374.978C196.151 377.032 191.658 381.214 188.12 385.682C184.276 390.536 181.1 395.975 177.95 401.399C176.437 404.001 174.592 406.273 173.025 408.817C171.71 410.954 170.943 413.328 169.551 415.405C166.437 420.052 164.322 425.996 162.436 431.401C160.339 437.405 158.01 444.546 158.51 451.077C158.699 453.545 158.897 456.815 159.75 459.104C160.835 462.016 162.381 461.941 164.611 463.04C168.441 464.926 169.516 470.141 174.466 469.124C179.109 468.171 183.136 463.887 186.524 460.472C190.939 456.022 195.165 451.33 199.39 446.655C203.726 441.857 207.998 436.536 211.447 430.891C212.805 428.669 213.863 426.159 215.468 424.136C217.511 421.559 219.805 421.249 222.58 420.223C246.844 411.246 271.225 402.588 296.247 396.661C302.241 395.241 308.284 393.409 314.173 391.519C320.419 389.514 323.653 391.633 328.808 395.448C339.577 403.421 352.305 409.036 364.297 414.238C368.073 415.876 374.084 415.98 377.035 419.21C359.54 422.195 342.867 427.942 325.992 433.664C317.672 436.484 309.256 438.93 300.905 441.627C292.55 444.326 284.514 447.823 276.274 450.865C268.073 453.892 259.407 455.127 251.127 457.92C242.674 460.771 234.258 462.732 225.582 464.465C216.821 466.216 208.122 468.235 199.332 469.802C195.307 470.519 191.283 471.263 187.303 472.25C183.408 473.216 179.646 475.529 175.732 476.065C158.252 478.46 141.116 483.795 123.704 486.811C110.704 489.063 88.0864 492.204 79.6562 477.599C71.1789 462.913 81.5792 445.781 90.859 435.28C96.6261 428.753 103.106 423.009 109.905 417.899C117.182 412.43 124.183 406.525 131.461 401.064C147.932 388.707 165.792 378.628 183.487 368.698C191.98 363.931 200.187 358.82 208.449 353.589C212.55 350.993 214.819 355.182 218.061 358.029C220.61 360.269 225.292 365.79 228.859 363.238C228.996 364.157 229.134 365.075 229.271 365.996C230.316 365.462 231.361 364.929 232.406 364.396C233.108 366.457 233.026 367.737 234.986 368.819C236.19 369.484 238.76 370.284 239.908 369.113C240.142 369.928 240.376 370.74 240.61 371.554C241.614 371.468 241.807 368.254 241.997 367.501C243.716 370.314 246.095 372.664 249.118 373.459C249.133 373.275 248.626 370.965 248.648 370.95C249.604 370.295 250.811 373.102 251.318 373.703C252.999 375.695 254.002 375.386 255.859 373.779C255.994 373.943 256.622 375.779 256.714 375.746C257.116 375.603 257.879 373.976 257.963 373.828C257.846 375.968 261.537 376.399 262.841 375.94C262.548 375.312 262.256 374.686 261.964 374.059C266.504 373.38 268.286 378.78 272.644 378.507C275.866 378.303 273.282 377.515 275.105 375.969C276.698 374.619 276.981 377.573 277.138 377.478C277.442 377.122 277.677 376.713 277.844 376.25C278.434 378.779 283.127 381.047 282.642 376.89C284.488 377.716 285.799 379.089 287.842 379.379C290.326 379.731 292.978 379.141 295.456 378.911C300.794 378.413 305.826 377.194 310.638 374.455C313.492 372.832 316.528 371.359 319.21 369.4C321.455 367.761 325.713 362.784 328.701 364.926C327.936 362.399 331.538 364.741 331.653 361.486C332.232 361.974 332.811 362.462 333.39 362.951C333.736 362.099 333.64 360.756 334.105 360.013C334.743 358.994 335.054 359.594 335.598 359.021C336.207 358.379 336.739 356.66 337.469 356.171C338.221 355.667 339.106 356.268 339.915 355.827C341.148 355.157 346.45 348.611 345.552 354.22C347.832 353.353 346.075 352.56 346.359 350.859C346.931 347.45 348.323 349.904 349.71 350.2C351.98 350.688 351.934 348.586 353.2 347.059C354.356 345.663 356.53 345.039 355.781 342.616C356.636 343.132 356.818 344.143 356.917 345.125ZM220.054 272.325C218.266 274.556 216.926 273.603 214.938 273.275C214.725 272.477 214.361 272.367 213.848 272.943C213.258 273.323 212.625 273.573 211.946 273.691C210.315 274.141 208.622 273.95 207.027 274.632C207.072 274.034 207.634 272.97 207.274 272.363C205.596 273.662 204.556 274.488 202.496 274.513C200.827 274.533 197.897 273.105 196.511 274.812C196.468 274.147 196.425 273.484 196.384 272.819C195.705 273.198 195.114 273.704 194.612 274.339C194.516 273.355 194.464 272.611 193.883 271.815C192.78 274.354 191.572 274.415 189.43 273.445C189.73 273.58 187.285 271.975 187.379 272.42C186.606 268.774 198.806 269.075 200.087 268.931C203.286 268.569 206.484 268.359 209.688 268.029C212.726 267.716 214.994 267.186 217.096 270.024C216.159 265.924 225.024 266.128 220.054 272.325ZM80.169 208.749C80.5051 214.946 81.7372 221.534 79.5849 227.499C77.8548 232.294 74.4033 237.709 70.6849 240.839C63.0714 247.245 56.6187 239.406 55.5587 230.79C54.4543 221.803 56.6435 210.822 63.5546 205.282C67.6844 201.971 71.683 202.2 76.4372 203.289C77.5537 203.544 79.3665 203.446 80.005 204.688C80.1549 204.979 80.0205 208.743 80.169 208.749ZM181.286 291.325C179.971 292.069 178.595 292.504 177.436 293.514C177.033 293.866 176.896 294.667 176.468 294.962C175.691 295.5 174.579 295.143 173.768 295.588C172.427 296.322 171.465 297.372 169.87 298.049C167.502 299.054 165.426 300.432 163.188 301.738C159.459 303.915 155.456 305.784 151.558 307.557C149.589 308.451 144.147 310.195 144.335 313.421C143.895 313.554 143.445 312.476 142.526 312.562C141.264 312.68 139.597 314.313 138.287 314.715C135.836 315.466 133.94 315.533 133.94 319.031C133.16 318.438 132.962 316.985 131.924 316.793C130.756 316.577 130.264 317.988 129.33 318.426C128.23 318.944 126.861 318.448 125.772 318.998C125.295 319.562 124.765 320.055 124.183 320.475C123.59 320.551 123 320.532 122.413 320.413C120.099 320.963 117.97 321.937 115.652 322.443C113.392 322.938 111.844 323.117 112.794 326.109C110.376 326.639 109.786 323.766 107.059 324.818C103.715 326.104 100.591 327.033 97.1007 327.818C95.3208 328.218 93.4609 329.111 91.6683 329.321C90.3892 329.471 89.1954 328.958 87.9358 329.118C86.4181 329.308 85.1981 330.096 83.6273 330.125C82.1371 330.154 80.573 329.855 79.1097 329.561C79.3167 330.221 79.5755 330.854 79.8861 331.459C78.8745 331.222 78.4073 329.86 77.5496 329.658C76.6496 329.448 75.843 330.487 75.0936 330.257C74.7743 330.158 74.9867 329.056 74.416 328.846C73.8951 328.655 73.676 328.88 73.1598 328.79C72.9877 328.76 70.8294 328.629 70.4853 328.833C69.8844 329.19 70.4927 329.858 70.373 329.957C68.3431 331.639 68.3182 330.732 67.4135 328.974C66.0846 326.395 64.4822 328.023 62.0672 327.571C59.3752 327.069 57.2545 328.399 54.6055 328.209C51.7482 328.005 48.3901 325.611 45.8635 324.213C40.4082 321.194 35.0881 318.337 30.5067 313.764C21.5502 304.825 14.264 293.833 9.96797 281.248C5.35207 267.728 4.47739 253.628 4.84788 239.285C5.07077 230.659 5.68741 222.038 6.90173 213.513C7.73769 207.648 7.91279 197.227 13.8177 194.557C14.8326 208.287 11.6295 222.279 13.6496 235.921C14.258 240.03 15.7414 245.505 18.549 248.548C22.7056 253.053 23.6782 246.541 24.054 242.944C24.7537 236.263 26.0536 229.62 26.9745 222.971C27.894 216.325 28.544 209.604 29.8224 203.028C30.2889 200.63 34.049 183.071 36.8088 183.903C36.2503 196.677 34.7675 209.231 34.709 222.052C34.6862 227.194 34.2748 232.626 34.9375 237.735C35.279 240.364 37.4171 248.078 41.0945 247.434C44.4976 246.839 40.7564 241.405 40.4385 239.31C39.5969 233.763 40.6697 226.863 41.4541 221.357C42.9396 210.938 46.2526 200.268 51.6675 191.561C56.5178 183.764 63.9855 176.342 72.9823 177.717C76.8257 178.305 79.8249 179.374 81.756 183.304C83.2717 186.388 89.2411 189.893 85.7815 193.755C82.6325 197.27 77.5389 194.456 74.0383 193.618C69.7519 192.592 65.1584 193.826 61.5738 196.639C55.4236 201.462 51.9189 210.087 50.7749 218.176C49.233 229.082 53.3547 257.63 68.5353 251.232C78.6204 246.981 86.2164 231.691 85.3695 219.985C85.0301 215.299 83.3941 206.404 89.184 205.138C96.6019 203.518 97.6498 212.674 96.8984 218.624C95.8068 227.278 91.7214 235.326 87.0479 242.168C82.9746 248.132 78.2373 251.861 73.3359 256.787C71.8847 258.245 68.1831 261.523 68.8049 264.236C69.4864 267.208 75.3033 268.053 77.6323 268.541C89.1551 270.956 102.149 268.735 113.653 267.049C137.295 263.582 160.626 255.044 180.013 239.347C180.796 249.059 181.783 258.739 182.147 268.487C182.323 273.219 182.368 278.019 182.851 282.725C183.149 285.62 184.224 289.663 181.286 291.325ZM115.73 325.168C114.802 325.711 115.805 322.424 115.547 323.511C116.934 324.068 116.995 324.62 115.73 325.168ZM213.805 207.627C215.279 205.809 219.304 201.484 220.582 205.589C221.057 203.839 221.119 201.247 222.954 203.61C223.685 200.707 231.745 200.979 233.741 200.851C240.133 200.441 246.551 200.222 252.92 199.511C266.009 198.05 279.326 198.805 292.463 198.756C295.307 198.746 298.144 198.573 300.968 199.036C303.693 199.481 306.557 200.732 309.334 200.275C311.804 199.869 313.423 199.106 315.965 199.432C319.006 199.823 321.959 200.101 325.027 200.088C338.599 200.032 352.165 200.648 365.74 200.672C368.385 200.676 371.555 200.098 374.038 201.356C374.957 201.823 375.962 203.374 376.664 203.544C377.469 203.739 376.991 202.334 378.069 202.969C379.512 203.818 378.395 206.432 377.441 206.846C378.012 206.599 376.41 206.354 376.57 206.344C375.811 206.39 375.162 207.043 374.346 207.002C373.103 206.941 372.062 206.092 371.061 205.345C371.043 205.65 371.594 207.685 370.965 207.787C370.425 207.876 369.918 205.87 369.864 205.403C366.827 208.403 363.609 206.731 359.841 207.11C357.168 207.381 351.594 209.376 349.73 206.252C349.652 206.917 349.414 207.499 349.016 207.998C348.483 208.906 348.022 208.829 347.633 207.764C347.502 207.77 346.203 208.086 346.177 208.084C345.264 208.003 344.079 207.636 343.149 207.547C341.711 207.409 341.976 208.582 340.83 208.601C340.204 208.61 338.608 207.599 337.517 207.536C335.626 207.425 333.696 208.323 331.831 208.051C330.548 207.864 329.388 206.694 328.128 206.649C326.558 206.59 326.05 207.931 324.806 206.048C324.551 205.971 324.393 207.078 324.293 207.098C324.317 207.092 323.109 207.292 322.966 207.355C322.718 207.461 321.753 207.956 321.459 207.962C320.824 207.975 320.479 207.466 319.807 207.454C318.694 207.433 315.14 208.531 315.239 206.225C311.267 207.873 307.877 207.231 303.8 207.62C301.929 207.8 300.754 207.519 298.974 207.134C296.746 206.653 295.265 207.258 293.043 207.381C290.907 207.498 290.233 206.486 288.43 205.572C287.718 205.212 287.249 204.737 286.376 204.937C285.879 205.051 286.233 205.989 286.086 206.053C285.32 206.384 284.784 206.033 283.734 206.114C281.794 206.261 281.022 208.077 279.028 206.373C279.69 206.283 280.353 206.191 281.016 206.102C279.109 205.196 276.593 204.735 277.055 208.031C275.429 207.775 276.836 206.535 276.037 206.091C275.237 205.649 274.343 206.39 273.336 206.757C270.677 207.722 268.46 207.243 265.688 207.07C262.537 206.873 255.169 209.751 252.913 206.015C252.845 206.802 252.09 208.995 251.085 208.892C250.758 208.858 251.671 206.529 251.774 206.283C251.257 207.517 248.896 207.751 247.732 208.391C247.863 207.727 247.993 207.065 248.123 206.403C247.043 207.691 246.518 206.905 245.247 207.335C244.691 207.524 243.886 208.807 243.411 208.884C242.858 208.165 242.162 207.856 241.324 207.956C240.766 207.8 240.209 207.77 239.652 207.865C237.421 208.047 235.387 209.434 233.168 208.489C231.246 207.67 230.504 205.562 229.358 208.915C229.057 208.319 228.755 207.723 228.454 207.127C228.083 207.774 227.711 208.421 227.339 209.067C225.885 208.001 225.796 207.384 224.124 207.776C223.731 207.951 223.328 207.926 222.916 207.702C222.818 208.031 222.72 208.358 222.621 208.686C222.582 209.511 222.363 209.784 221.965 209.504C221.63 209.369 221.328 209.165 221.059 208.89C219.952 208.985 218.539 209.311 217.351 209.131C216.893 209.063 214.019 207.364 213.805 207.627ZM247.667 185.438C247.798 185.662 247.928 185.886 248.059 186.11C246.262 187.172 245.839 186.563 245.654 184.43C246.531 184.449 246.681 186.177 247.667 185.438ZM248.78 184.187C249.645 184.614 250.638 185.453 251.452 184.329C252.001 186.114 247.927 188.55 248.78 184.187ZM254.367 184.975C256.184 186.35 251.827 185.245 251.834 185.247C252.617 184.437 253.461 184.347 254.367 184.975ZM269.988 177.311C270.611 180.83 272.329 180.73 275.102 179.094C279.146 176.708 279.829 172.801 280.11 168.136C280.381 163.662 280.87 161.93 284.99 162.864C287.865 163.516 290.298 162.968 293.197 162.879C296.29 162.783 297.38 163.312 297.629 166.877C297.878 170.445 298.445 173.156 300.758 175.872C303.11 178.633 306.247 180.282 309.302 181.827C310.874 182.62 312.349 183.475 314.088 183.647C314.761 183.714 318.268 183.217 318.341 184.46C318.396 185.394 313.54 188.028 313.025 188.342C310.773 189.713 308.527 190.944 306.067 191.774C300.407 193.686 294.406 193.799 288.545 193.683C279.093 193.497 266.03 189.021 260.378 179.632C263.582 178.858 266.785 178.084 269.988 177.311ZM269.141 146.838C267.645 145.433 266.677 143.309 265.434 141.645C264.808 140.806 264.349 140.539 263.753 140.119C263.125 139.677 262.771 140.303 262.247 139.263C260.894 136.576 265.07 132.795 260.641 131.761C259.142 131.41 255.536 132.74 255.098 130.335C254.479 126.936 260.274 126.714 261.637 124.988C264.349 121.558 262.509 115.742 264.16 111.785C265.723 108.036 269.758 107.37 272.942 106.243C277.38 104.675 281.871 103.765 286.376 102.51C289.527 101.632 294.761 98.107 297.682 101.222C293.174 102.343 295.794 104.102 298.8 105.095C302.203 106.221 305.811 106.66 309.338 106.973C312.969 107.296 316.668 107.357 320.256 106.547C323.573 105.797 327.278 102.568 330.757 103.396C328.827 107.153 323.077 109.206 319.583 110.19C317.804 110.691 316.664 110.535 316.903 113.02C317.134 115.428 319.004 117.843 319.427 120.353C319.985 123.673 319.497 126.725 318.441 129.848C317.403 132.92 317.161 133.322 318.068 136.257C319.483 140.829 316.443 145.882 313.634 149.202C302.273 162.625 280.532 157.54 269.141 146.838ZM298.008 66.611C298.054 66.748 298.015 66.6961 298.008 66.611V66.611ZM301.546 100.487C301.075 100.881 298.362 101.707 298.476 100.521C298.627 98.9296 301.072 99.5046 301.546 100.487ZM307.729 68.3556C307.093 67.8242 305.31 68.0425 306.613 66.0285C307.038 66.9143 307.384 67.6346 307.729 68.3556ZM264.942 55.6244C265.753 53.2643 266.652 51.0681 267.017 48.5552C267.243 47.0071 266.794 45.2392 268.727 44.9961C266.264 43.7934 266.239 39.046 266.093 36.5849C265.894 33.1959 264.937 28.6581 266.268 25.5036C267.633 22.2632 269.475 22.3168 270.031 26.176C270.249 27.687 269.416 28.1757 269.26 29.228C268.95 31.3097 269.566 30.8533 270.765 29.2674C271.261 30.8793 271.45 33.3015 273.465 33.199C273.331 32.7631 272.559 31.8015 272.817 31.26C273.213 30.4284 275.148 31.699 275.394 31.8914C277.162 33.2755 277.545 34.539 276.284 36.2846C278.029 36.4954 276.565 38.2061 277.691 38.6516C279.41 39.332 278.257 36.1093 278.071 35.5426C279.117 35.9994 279.468 36.5217 280.13 37.4467C280.519 38.0849 280.873 38.7479 281.192 39.4336C281.549 40.6859 282.281 40.999 283.392 40.3751C285.618 41.157 288.691 41.0344 290.686 42.4019C291.597 43.0258 291.926 44.3918 292.688 44.9103C293.544 45.4943 294.692 45.2294 295.612 45.5959C295.276 46.4524 295.548 46.916 296.428 46.9883C297.113 47.0582 297.775 47.2306 298.416 47.5053C298.894 47.1011 299.416 46.7813 299.979 46.5495C300.357 47.2953 300.891 47.4797 301.583 47.1042C303.636 47.5346 304.622 48.4039 305.927 49.7037C307.097 50.8702 306.144 50.965 307.427 50.8612C307.943 50.8198 308.846 49.8406 310.025 50.0318C310.704 50.1793 311.358 50.4141 311.989 50.734C312.67 51.3865 313.394 51.4685 314.158 50.9809C315.401 51.6605 315.524 52.8661 317.039 53.031C318.715 53.2138 318.176 50.874 319.327 54.1734C320.877 50.6753 321.445 56.2484 323.045 56.6984C324.703 57.165 324.881 55.6598 326.3 57.3043C326.726 57.7972 326.702 58.6116 327.18 59.1339C327.962 59.9888 329.02 59.818 329.7 60.9845C329.321 60.3335 329.789 63.292 329.781 63.1942C329.887 64.4992 328.851 65.9615 330.974 65.8501C330.95 65.9871 329.931 67.6511 329.732 67.463C329.683 67.2733 329.642 67.0807 329.609 66.8857C329.381 66.9956 329.281 68.5806 329.322 68.8606C329.502 68.8922 329.576 68.7424 329.543 68.4113C329.195 69.6335 329.72 70.4102 329.05 71.5707C328.621 72.3121 327.448 72.8697 326.824 73.3273C325.319 74.4322 323.846 75.5407 322.378 76.7171C318.954 79.4596 315.121 82.7673 310.81 83.3393C312.975 80.9588 325.433 71.95 319.184 69.3641C318.025 68.8847 315.915 68.4308 314.704 68.33C313.196 68.2051 311.637 69.1714 309.975 68.5678C307.968 67.8416 308.724 65.7297 307.499 64.9719C304.896 63.365 305.51 67.1446 304.692 68.1343C303.831 67.1236 304.015 66.6314 302.656 66.5403C301.277 66.447 300.949 67.8747 299.339 66.9851C297.122 65.7598 298.296 63.3184 295.15 63.2612C295.202 62.7253 295.659 61.2276 295.058 60.8099C294.249 61.9847 294.876 63.2988 294.124 64.43C293.748 64.9974 292.932 65.4498 292.337 65.6334C290.942 66.0624 290.744 66.8835 290.971 64.5323C289.937 66.6171 286.768 65.7598 284.883 65.5499C281.818 65.2089 278.56 64.5594 275.622 63.4591C272.904 62.4408 271.453 60.6918 269.211 59.1C268.364 58.4979 267.96 58.7282 266.745 58.3542C265.545 57.9854 264.377 57.2704 264.942 55.6244ZM271.409 18.7099C271.872 18.3978 272.204 23.0554 271.643 23.9256C270.616 22.1071 268.796 19.4398 271.409 18.7099ZM272.887 16.8521C274.375 15.3442 273.341 19.2388 273.068 19.8922C272.517 19.4966 271.966 19.1009 271.415 18.7052C272.118 18.222 272.293 17.4535 272.887 16.8521ZM329.025 10.5755C342.772 13.8057 356.394 19.8434 367.42 29.7797C377.463 38.83 384.551 51.671 388.525 65.3301C392.65 79.5077 391.264 95.2373 381.45 106.088C376.28 111.804 369.453 115.252 362.946 118.617C359.829 120.229 356.618 121.572 353.488 123.147C351.241 124.278 348.496 126.087 345.931 125.774C347.24 124.232 349.138 124.201 350.722 123.258C352.636 122.118 354.199 119.931 355.848 118.369C357.486 116.818 361.118 111.933 363.635 113.115C363.285 110.513 365.933 109.305 367.126 107.589C368.388 105.774 368.479 103.651 370.805 103.057C368.307 100.868 369.072 96.7417 369.615 93.7629C370.31 89.9532 370.631 86.4558 370.905 82.5791C371.399 75.5904 371.797 66.687 368.348 60.5435C367.229 58.5483 365.804 56.715 364.806 54.6423C363.602 52.1451 363.868 49.9475 363.868 47.2095C361.668 48.8653 361.204 45.4898 360.275 43.8446C359.577 42.6103 358.661 41.9209 358.435 40.3676C358.272 39.2379 359.368 39.0467 358.767 37.8621C358.031 38.4845 357.737 39.4494 357.364 40.345C356.685 40.0409 357.486 38.9812 357.097 38.6373C357.085 38.6275 355.774 37.9901 355.839 38.0819C354.995 36.8845 354.724 34.8976 354.31 33.4725C352.765 34.349 353.054 34.2458 351.33 32.7813C351.026 32.5235 349.509 31.3396 349.366 30.9526C348.699 29.1428 349.868 30.2148 349.542 29.0916C348.603 25.8654 343.334 26.4755 342.917 21.6413C340.348 23.4676 339.368 20.8799 337.849 19.0394C336.293 17.154 333.682 16.4288 333.822 13.4383C333.013 13.7481 332.205 14.057 331.397 14.3652C331.817 11.6057 328.155 11.7814 326.829 10.3816C327.565 10.3918 328.297 10.4565 329.025 10.5755ZM331.119 181.492C332.393 180.217 332.006 181.914 332.826 181.72C333.527 181.554 333.666 180.961 334.338 180.779C337.108 180.029 341.249 180.971 344.162 180.809C347.535 180.622 353.318 181.406 354.926 185.827C355.895 188.488 354.417 187.582 352.788 187.384C351.526 187.232 350.403 187.518 349.154 187.503C348.536 187.61 347.921 187.6 347.307 187.471C347.008 187.25 346.831 186.94 346.777 186.539C345.039 186.245 343.192 187.396 341.267 187.454C338.698 187.53 336.414 186.979 334.462 185.036C333.686 186.332 333.158 186.974 331.762 187.119C331.725 187.123 330.361 186.508 330.151 186.447C329.871 186.365 329.165 187.022 328.627 186.834C329.582 185.13 329.721 182.891 331.119 181.492ZM506.596 196.873C507.049 195.107 507.429 193.317 507.842 191.54C514.184 199.623 519.734 210.445 522.232 220.812C523.853 227.549 526.378 239.756 518.644 243.231C512.344 246.062 508.831 235.916 507.237 230.918C503.718 219.887 503.718 208.098 506.596 196.873ZM222.853 70.2047C222.935 70.1859 218.748 72.9126 220.127 70.7052C220.681 69.8171 222.783 69.1932 223.715 69.1932L222.853 70.2047ZM218.826 71.36C218.341 71.8161 217.852 72.2669 217.358 72.7117C216.885 71.8733 216.409 71.0341 215.935 70.1957C216.87 69.7547 220.838 69.4235 218.826 71.36ZM215.874 156.132C214.998 155.467 214.304 155.82 214.041 156.935C214.041 155.826 214.557 153.248 215.35 152.947C215.863 152.752 213.646 149.816 214.269 149.048C215.853 150.064 214.905 151.037 215.369 152.349C215.578 152.941 216.208 153.5 216.345 153.955C216.579 154.727 217.525 157.381 215.874 156.132ZM211.583 149.524C210.685 149.782 212.256 151.44 212.255 152.173C212.253 152.728 211.659 153.153 211.414 153.911C210.882 155.554 211.797 156.664 210.291 157.918C210.291 154.318 208.133 144.777 212.28 143.023C210.257 141.239 211.919 139.18 213.504 141.315C215.029 143.367 214.057 148.816 211.583 149.524ZM209.422 135.316C208.607 132.08 206.154 130.948 203.349 131.14C203.456 129.482 204.577 127.094 205.387 130.08C205.721 129.197 205.951 128.046 206.711 127.461C207.99 131.95 214.366 134.431 210.396 139.296C210.072 137.97 209.756 136.641 209.422 135.316ZM202.012 131.381C187.247 132.579 166.518 136.01 154.702 123.337C146.998 115.075 147.409 102.207 153.635 93.0268C157.188 87.7879 162.038 84.0994 166.91 80.5855C168.789 79.2285 170.381 78.3337 172.445 77.554C172.779 77.5133 173.093 77.5969 173.387 77.8046C173.503 77.2461 173.784 76.8337 174.231 76.5635C175.028 76.0864 176.163 75.9155 176.622 74.9243C176.132 76.7863 175.88 78.7032 175.701 80.6291C175.303 80.1106 174.906 79.592 174.508 79.0735C174.176 82.5821 170.912 80.4583 168.962 80.8963C170.246 82.8862 171.164 83.6087 171.275 86.2383C170.319 84.2612 168.319 82.9615 166.46 82.3248C167.47 85.6686 168.183 87.6532 167.167 91.3199C165.939 90.535 165.856 88.6497 164.367 88.1981C163.974 90.3844 163.904 92.8109 163.401 94.9325C159.587 92.9847 159.959 98.2304 161.491 100.826C162.305 102.207 162.705 103.806 163.431 105.131C165.214 108.383 163.859 103.52 165.841 103.751C165.396 107.18 165.241 107.522 167.482 110.034C169.67 112.483 170.805 115.881 173.145 118.181C173.822 117.212 172.757 116.197 172.663 115.269C174.84 115.678 175.86 118.123 177.953 115.957C178.866 117.949 179.854 120.143 182.04 120.552C180.595 117.476 184.815 119.562 185.897 119.999C186.718 120.33 188.189 120.593 188.505 120.721C190.289 121.442 189.066 120.148 190.148 122.512C191.737 121.974 192.337 120.499 194.238 121.746C195.783 122.76 195.786 124.497 196.14 126.277C196.508 125.113 196.88 123.949 197.287 122.801C197.702 122.996 199.442 125.141 199.252 125.15C203.324 124.927 203.181 127.758 202.012 131.381ZM181.281 73.3401C182.099 72.6974 183.097 73.5531 184.015 73.3228C185.287 73.0052 186.009 71.786 187.429 71.655C187.034 73.0692 186.293 72.9367 185.665 74.0468C185.451 74.4254 185.563 75.333 185.372 75.5513C183.781 77.3763 183.231 75.8869 181.606 74.5051C181.747 76.1714 182.034 76.6975 180.632 77.1445C179.363 77.5502 177.268 76.0578 176.628 74.9131C177.167 73.7044 180.302 74.1093 181.281 73.3401ZM191.412 70.7353C192.791 70.8828 191.13 75.4376 189.155 71.0198C189.899 70.8384 190.652 70.7436 191.412 70.7353ZM198.502 69.8555C200.676 69.3588 207.929 67.0445 208.736 70.8339C208.88 70.7399 209.42 68.6002 209.671 68.8613C210.675 69.9075 210.787 71.2938 210.711 72.7463C209.497 69.915 209.928 72.4024 209.106 72.2082C208.891 72.157 208.563 72.6063 208.019 72.4212C207.306 72.1773 206.795 70.4787 206.344 69.9037C205.595 71.1011 204.666 72.644 203.165 72.5401C202.102 72.4663 200.39 69.404 201.766 72.7568C200.958 72.458 200.023 71.7815 199.123 71.9169C198.116 72.0697 197.592 73.1828 196.648 73.3627C194.554 73.7601 194.238 71.5045 192.879 70.2793C194.754 70.1573 196.651 70.2777 198.502 69.8555ZM211.656 69.8187C211.81 69.042 213.713 68.7281 214.197 68.975C215.38 69.5763 214.942 70.3703 214.725 71.6911C213.848 71.226 212.97 70.7617 212.093 70.2966C213.402 72.6582 211.029 73.0007 211.656 69.8187ZM579.958 208.145C579.802 202.486 579.655 196.729 578.374 191.219C577.477 187.363 575.274 180.449 571.107 179.78C564.824 178.77 561.344 192.676 559.583 197.449C559.231 191.829 559.54 185.848 557.643 180.514C556.126 176.239 552.291 172.191 548.988 176.991C546.049 181.263 545.485 187.57 544.711 192.71C543.709 199.37 543.107 206.082 542.375 212.783C539.505 206.572 539.003 199.463 536.735 193.009C534.594 186.918 531.226 181.101 527.98 175.684C525.331 171.258 522.107 167.098 517.957 164.393C514.343 162.039 508.025 159.492 504.581 163.402C501.707 166.664 502.158 171.03 502.307 175.148C502.374 176.981 502.631 178.238 501.19 179.162C500.483 179.616 499.377 179.381 498.599 179.624C497.346 180.016 496.385 180.679 495.326 181.562C487.894 187.746 484.469 198.89 483.409 208.826C482.067 221.416 486.45 232.208 490.222 243.728C490.823 245.563 492.732 249.458 492.468 251.507C492.179 253.753 489.662 253.811 487.964 253.858C482.834 253.999 477.471 253.572 472.367 253.036C460.215 251.763 448.072 245.213 437.191 239.364C435.206 238.297 432.397 237.686 430.776 236.005C429.253 234.426 428.851 231.894 427.537 230.081C424.31 225.635 422.253 221.841 417.501 219.154C412.662 216.419 407.724 213.891 403.003 210.896C397.165 207.189 391.77 202.495 386.175 198.345C375.776 190.634 365.449 182.182 354.425 175.625C349.302 172.578 343.577 172.085 338.259 169.59C333.08 167.16 326.722 167.157 321.318 168.691C318.685 169.439 316.893 171.211 314.472 172.368C311.634 173.723 309.32 172.227 306.823 170.609C303.007 168.137 299.226 164.109 304.659 161.443C306.501 160.537 308.811 160.195 310.421 158.773C312.137 157.257 313.514 154.46 314.91 152.561C318.012 148.34 319.865 143.481 324.405 140.856C329.426 137.953 335.378 137.163 340.732 135.266C346.533 133.211 352.213 130.767 357.905 128.368C368.162 124.046 378.824 119.379 386.194 109.863C392.551 101.654 395.321 91.0573 395.065 80.295C394.54 58.294 384.014 35.9648 368.912 22.2088C350.394 5.34091 326.835 -0.283867 303.443 0.0109299C292.465 0.149711 279.363 1.75841 270.203 9.22685C262.291 15.6776 260.975 26.9603 262.152 37.1449C262.629 41.2782 264.262 46.7331 261.658 50.375C260.201 52.4131 257.586 52.9173 255.623 54.1877C253.157 55.784 250.982 57.3141 248.188 58.1577C236.323 61.7462 223.824 60.4968 211.691 60.2981C191.481 59.967 170.765 66.094 155.689 82.0395C143.513 94.9151 139.862 119.195 154.711 131.747C166.709 141.888 185.526 140.772 199.673 139.004C204.059 138.454 207.076 137.657 207.086 143.666C207.097 150.23 206.126 157.091 207.621 163.535C209.977 173.685 218.687 173.926 226.387 171.741C230.451 170.588 234.379 168.854 238.237 167.038C243.896 164.374 249.084 160.458 254.673 157.799C258.462 155.997 261.299 161.824 264.66 157.784C265.281 157.038 265.396 155.925 266.332 155.543C267.8 154.945 270.263 157.043 271.55 157.707C273.478 158.7 275.421 159.431 276.192 161.824C276.912 164.063 276.596 167.622 275.906 169.831C274.406 174.632 270.368 173.682 266.681 173.361C260.251 172.801 253.864 171.613 247.436 171.114C241.669 170.667 236.268 172.596 231.294 175.781C220.846 182.468 212.298 193.107 203.24 201.855C198.577 206.357 194.07 211.22 189 215.141C186.795 216.846 184.408 218.413 182.492 220.532C180.591 222.633 180.382 224.544 179.732 227.34C178.574 232.32 172.823 234.754 169.228 237.381C164.144 241.096 158.755 243.716 153.056 245.996C140.987 250.823 128.823 254.194 116.205 256.685C110.028 257.905 103.902 258.707 97.6639 259.365C92.2867 259.933 86.5693 261.787 81.1988 260.306C82.7454 257.497 85.4865 255.81 87.6213 253.639C90.3731 250.84 92.7135 247.522 94.7965 244.086C98.8503 237.394 101.694 230.213 102.347 222.096C102.936 214.791 102.261 206.052 98.324 199.881C96.9642 197.749 94.2736 197.169 93.057 195.248C91.8464 193.34 92.3082 190.053 91.6455 187.828C89.959 182.167 84.9535 175.152 80.5481 171.863C75.7691 168.295 68.778 166.985 63.2575 168.844C53.03 172.289 46.7474 184.527 42.0671 194.418C39.5109 188.394 43.7919 179.458 38.7977 174.525C34.5853 170.364 31.242 178.425 29.8332 181.873C23.2198 198.061 21.7176 215.23 18.9469 232.551C17.8177 231.304 18.3964 228.106 18.5026 226.619C18.7002 223.851 18.6814 221.137 18.6868 218.358C18.7002 211.337 19.8658 204.284 19.3314 197.27C19.0229 193.215 17.8681 184.665 12.6068 186.012C8.14482 187.155 5.34992 194.181 3.94793 198.476C1.92575 204.671 1.45886 210.804 1.58476 217.349C1.72396 224.58 0.493511 231.693 0.19541 238.914C-0.38399 252.94 0.188356 266.845 3.78272 280.382C9.66846 302.549 23.2017 320.967 41.2632 332.089C51.2145 338.218 62.254 342.095 73.6041 342.929C79.755 343.381 85.6928 342.561 91.7913 341.849C97.8091 341.146 103.859 340.821 109.866 339.997C123.245 338.159 136.281 333.417 148.442 327.036C154.843 323.676 160.863 319.552 167.159 315.97C169.686 314.534 171.392 312.736 173.549 310.738C175.686 308.758 176.277 308.603 178.709 308.603C177.995 306.467 180.076 305.808 181.003 304.457C180.951 305.113 180.899 305.768 180.847 306.422C181.553 304.708 182.21 304.724 182.818 306.472C183.419 304.515 183.864 302.503 184.59 300.595C187.365 302.168 187.131 305.906 190.843 303.176C193.899 300.931 196.71 298.28 199.825 296.078C206.922 291.062 213.042 284.536 220.159 279.578C220.159 284.407 220.464 289.278 219.887 294.083C219.339 298.652 217.815 302.922 216.604 307.296C214.369 315.366 214.215 323.99 211.738 331.978C210.714 335.286 208.046 338.053 207.281 341.273C206.501 344.559 208.302 347.192 205.283 349.349C203.154 350.87 200.493 351.512 198.135 352.432C194.539 353.836 191.124 355.816 187.623 357.496C171.203 365.374 155.186 373.398 139.972 383.991C125.534 394.043 110.876 404.425 97.6129 416.363C86.1022 426.724 74.4664 440.12 71.6642 457.022C68.9453 473.416 76.1899 491.014 90.736 496.413C98.2991 499.22 106.85 498.873 114.726 498.995C123.201 499.126 132.183 496.838 140.515 495.183C149.315 493.436 157.965 490.701 166.79 489.14C175.258 487.642 183.024 484.295 191.353 482.233C200.224 480.036 209.323 478.844 218.244 476.869C222.26 475.978 226.194 474.666 230.221 473.842C234.629 472.941 239.087 472.602 243.452 471.409C251.92 469.091 260.028 465.355 268.532 463.2C272.356 462.23 276.121 460.932 279.946 460.026C283.468 459.192 286.211 456.976 289.741 458.796C292.592 460.267 294.867 462.788 297.566 464.545C301.065 466.823 304.756 468.864 308.405 470.825C315.737 474.764 323.341 477.487 331.007 480.444C339.06 483.551 346.968 487.094 355.311 489.146C363.863 491.249 372.588 491.834 381.2 493.498C398.837 496.905 416.324 498.434 434.227 498.558C443.276 498.621 452.324 497.42 461.352 497.562C469.344 497.688 476.292 499.705 483.601 494.948C495.278 487.347 508.823 475.896 508.536 459.264C508.275 444.2 500.205 429.808 492.636 417.927C483.443 403.499 470.337 393.339 457.492 383.386C443.802 372.78 428.424 365.451 414.036 356.192C406.677 351.458 399.89 346.363 391.9 342.998C388.086 341.393 384.365 339.531 380.595 337.802C377.562 336.411 373.183 335.642 370.586 333.333C368.966 331.893 368.811 329.712 368.383 327.571C367.436 322.831 365.948 318.338 364.504 313.767C361.719 304.942 359.867 295.954 358.67 286.699C357.529 277.876 354.995 268.7 356.307 259.733C364.937 269.08 373.805 278.065 382.635 287.164C385.944 290.574 389.191 294.056 392.518 297.445C395.015 299.989 398.138 303.769 401.619 304.524C406.065 305.488 404.441 299.982 407.493 299.129C409.358 298.608 414.985 303.915 416.46 304.964C425.808 311.609 436.16 315.82 446.443 320.344C457.225 325.087 468.314 329.3 479.917 330.494C490.633 331.599 501.592 330.181 511.934 326.912C532.53 320.401 547.685 304.954 558.808 284.93C571.482 262.112 580.704 235.384 579.958 208.145Z" fill="black"/>
<path fill-rule="evenodd" clip-rule="evenodd" d="M265.182 158.403C265.178 158.41 265.145 158.488 265.145 158.488C265.186 158.457 265.198 158.429 265.182 158.403Z" fill="black"/>
<path fill-rule="evenodd" clip-rule="evenodd" d="M266.174 158.698C266.097 157.971 265.93 157.26 265.675 156.563C264.993 157.773 264.383 158.292 265.279 159.574C265.577 159.282 265.875 158.99 266.174 158.698Z" fill="black"/>
<path fill-rule="evenodd" clip-rule="evenodd" d="M313.668 331.679C314.43 330.77 313.096 330.428 312.589 330.416C312.64 331.39 312.208 333.727 313.399 334.179C313.114 333.297 313.203 332.463 313.668 331.679Z" fill="black"/>
<path fill-rule="evenodd" clip-rule="evenodd" d="M293.549 141.543C292.238 144.378 295.134 145.257 296.81 143.888C298.071 142.858 298.817 140.234 299.024 138.55C299.694 133.103 296.29 127.917 294.592 123.083C294.154 121.834 293.553 117.549 292.14 117.431C290.517 117.296 290.397 121.242 290.376 122.261C290.314 125.331 291.04 128.459 291.891 131.357C292.807 134.482 295.08 138.233 293.549 141.543Z" fill="black"/>
<path fill-rule="evenodd" clip-rule="evenodd" d="M299.783 130.177C304.821 135.199 308.851 126.833 308.499 121.885C308.412 120.659 307.672 116.138 305.595 117.783C304.552 118.61 305.441 121.296 304.944 122.475C302.534 128.192 300.214 119.324 298.591 118.628C296.617 117.78 296.419 120.684 296.421 122.237C296.426 125.318 297.736 128.135 299.783 130.177Z" fill="black"/>
<path fill-rule="evenodd" clip-rule="evenodd" d="M281.495 130.957C282.681 128.865 284.14 126.058 284.302 123.551C284.552 119.655 282.525 119.98 280.855 122.699C279.677 124.619 278.792 127.876 276.189 127.067C272.977 126.069 273.959 121.231 272.16 118.932C267.618 125.763 276.213 140.267 281.495 130.957Z" fill="black"/>
<path fill-rule="evenodd" clip-rule="evenodd" d="M288.302 151.861C290.18 152.315 295.078 152.148 293.381 148.927C291.241 144.871 284.124 150.849 288.302 151.861Z" fill="black"/>
<path fill-rule="evenodd" clip-rule="evenodd" d="M354.113 30.8771C354.458 29.7305 353.985 29.5222 353.165 28.6193C352.389 29.4217 353.383 30.2659 354.113 30.8771Z" fill="black"/>
<path fill-rule="evenodd" clip-rule="evenodd" d="M389.153 238.559C390.392 238.779 390.791 238.046 390.348 236.357C388.393 236.215 387.995 236.949 389.153 238.559Z" fill="black"/>
<path fill-rule="evenodd" clip-rule="evenodd" d="M321.477 61.3957C322.844 62.0956 322.32 63.5316 322.297 64.7448C323.001 63.8883 324.423 62.3214 323.844 61.0909C322.952 59.1935 320.62 60.9577 321.477 61.3957Z" fill="black"/>
<path fill-rule="evenodd" clip-rule="evenodd" d="M274.912 37.5115C274.704 37.0562 274.496 36.6008 274.287 36.1455C273.438 36.9086 272.128 38.9256 273.477 39.9085C274.03 39.1567 274.508 38.3582 274.912 37.5115Z" fill="black"/>
<path fill-rule="evenodd" clip-rule="evenodd" d="M291.315 50.8997C293.016 52.3929 292.2 47.8087 292.149 47.4347C291.896 47.9721 290.456 50.1448 291.315 50.8997Z" fill="black"/>
<path fill-rule="evenodd" clip-rule="evenodd" d="M290.372 48.5719C290.243 48.1933 290.111 47.814 289.982 47.4347C289.292 48.1497 288.448 49.609 289.586 50.4451C289.899 49.8596 290.161 49.2349 290.372 48.5719Z" fill="black"/>
<path fill-rule="evenodd" clip-rule="evenodd" d="M301.175 64.3133C301.314 64.4563 301.452 64.6 301.591 64.7445C302.152 63.4771 301.514 62.5258 300.455 62.4867C300.53 63.1979 300.77 63.8068 301.175 64.3133Z" fill="black"/>
<path fill-rule="evenodd" clip-rule="evenodd" d="M255.598 206.863C256.273 206.349 256.885 205.762 257.437 205.103C255.439 203.736 256.636 206.699 254.232 204.88C253.715 205.681 254.56 207.475 255.598 206.863Z" fill="black"/>
<path fill-rule="evenodd" clip-rule="evenodd" d="M339.508 331.168C340.267 329.863 340.404 329.901 339.367 328.91C338.502 330.523 338.592 330.108 339.508 331.168Z" fill="black"/>
<path fill-rule="evenodd" clip-rule="evenodd" d="M180.811 123.506C181.224 123.989 181.638 124.472 182.051 124.953C182.244 124.322 183.296 122.537 182.581 121.943C181.992 122.464 181.401 122.985 180.811 123.506Z" fill="black"/>
<path fill-rule="evenodd" clip-rule="evenodd" d="M195.513 128.281C194.853 128.158 193.274 127.619 192.909 128.306C193.875 129.192 196.054 128.383 195.513 128.281Z" fill="black"/>
</svg>
